<svg width="15" height="14" viewBox="0 0 15 14" fill="none" xmlns="http://www.w3.org/2000/svg">
<path d="M12.6159 0H1.41593C0.64593 0 0.0159302 0.63 0.0159302 1.4V12.6C0.0159302 13.37 0.64593 14 1.41593 14H12.6159C13.3859 14 14.0159 13.37 14.0159 12.6V1.4C14.0159 0.63 13.3859 0 12.6159 0ZM4.21593 11.9H2.11593V5.6H4.21593V11.9ZM3.16593 4.41C2.46593 4.41 1.90593 3.85 1.90593 3.15C1.90593 2.45 2.46593 1.89 3.16593 1.89C3.86593 1.89 4.42593 2.45 4.42593 3.15C4.42593 3.85 3.86593 4.41 3.16593 4.41ZM11.9159 11.9H9.81593V8.19C9.81593 7.63003 9.32593 7.14 8.76593 7.14C8.20593 7.14 7.71593 7.63003 7.71593 8.19V11.9H5.61593V5.6H7.71593V6.44C8.06593 5.88 8.83593 5.46 9.46593 5.46C10.7959 5.46 11.9159 6.58 11.9159 7.91V11.9Z" fill="white"/>
</svg>
