<svg width="17" height="16" viewBox="0 0 17 16" fill="none" xmlns="http://www.w3.org/2000/svg">
<g clip-path="url(#clip0)">
<path d="M16.0003 4.70404C15.9628 3.8539 15.8253 3.26944 15.6284 2.76299C15.4252 2.22541 15.1127 1.74412 14.7031 1.34401C14.303 0.937683 13.8186 0.621948 13.2872 0.421957C12.7778 0.22502 12.1964 0.0875415 11.3463 0.0500586C10.4898 0.00940124 10.2179 0 8.0456 0C5.8733 0 5.6014 0.00940124 4.74808 0.0468842C3.89794 0.0843671 3.31348 0.221967 2.80715 0.418783C2.26945 0.621948 1.78816 0.934509 1.38805 1.34401C0.981724 1.74412 0.66611 2.22858 0.465998 2.75994C0.26906 3.26944 0.131582 3.85073 0.0940993 4.70087C0.0534419 5.55736 0.0440407 5.82926 0.0440407 8.00156C0.0440407 10.1739 0.0534419 10.4458 0.0909248 11.2991C0.128408 12.1492 0.266008 12.7337 0.462946 13.2401C0.66611 13.7777 0.981724 14.259 1.38805 14.6591C1.78816 15.0654 2.27262 15.3812 2.80398 15.5812C3.31348 15.7781 3.89477 15.9156 4.74503 15.9531C5.59822 15.9907 5.87025 16 8.04255 16C10.2148 16 10.4868 15.9907 11.3401 15.9531C12.1902 15.9156 12.7747 15.7781 13.281 15.5812C14.3563 15.1654 15.2064 14.3153 15.6222 13.2401C15.819 12.7306 15.9566 12.1492 15.9941 11.2991C16.0315 10.4458 16.0409 10.1739 16.0409 8.00156C16.0409 5.82926 16.0378 5.55736 16.0003 4.70404ZM14.5594 11.2366C14.525 12.018 14.3938 12.4399 14.2844 12.7212C14.0155 13.4183 13.4623 13.9715 12.7653 14.2403C12.484 14.3497 12.059 14.481 11.2806 14.5153C10.4367 14.5529 10.1836 14.5622 8.04878 14.5622C5.91396 14.5622 5.65768 14.5529 4.81682 14.5153C4.03542 14.481 3.61346 14.3497 3.33216 14.2403C2.98529 14.1121 2.66955 13.909 2.41328 13.6433C2.1476 13.3838 1.94444 13.0713 1.81624 12.7244C1.70684 12.4431 1.57559 12.018 1.54128 11.2397C1.50368 10.3958 1.4944 10.1426 1.4944 8.00779C1.4944 5.87297 1.50368 5.6167 1.54128 4.77596C1.57559 3.99455 1.70684 3.5726 1.81624 3.29129C1.94444 2.9443 2.1476 2.62869 2.41645 2.37229C2.67578 2.10661 2.98834 1.90345 3.33533 1.77537C3.61664 1.66597 4.04177 1.53472 4.82 1.50029C5.66391 1.46281 5.91713 1.45341 8.05183 1.45341C10.1898 1.45341 10.4429 1.46281 11.2838 1.50029C12.0652 1.53472 12.4871 1.66597 12.7684 1.77537C13.1153 1.90345 13.4311 2.10661 13.6873 2.37229C13.953 2.63174 14.1562 2.9443 14.2844 3.29129C14.3938 3.5726 14.525 3.99761 14.5594 4.77596C14.5969 5.61987 14.6063 5.87297 14.6063 8.00779C14.6063 10.1426 14.5969 10.3927 14.5594 11.2366Z" fill="white"/>
<path d="M8.0456 3.8916C5.77648 3.8916 3.93542 5.73254 3.93542 8.00178C3.93542 10.271 5.77648 12.112 8.0456 12.112C10.3148 12.112 12.1558 10.271 12.1558 8.00178C12.1558 5.73254 10.3148 3.8916 8.0456 3.8916ZM8.0456 10.6679C6.57351 10.6679 5.37943 9.47399 5.37943 8.00178C5.37943 6.52957 6.57351 5.33561 8.0456 5.33561C9.51781 5.33561 10.7118 6.52957 10.7118 8.00178C10.7118 9.47399 9.51781 10.6679 8.0456 10.6679Z" fill="white"/>
<path d="M13.2779 3.72858C13.2779 4.25847 12.8483 4.68812 12.3183 4.68812C11.7884 4.68812 11.3587 4.25847 11.3587 3.72858C11.3587 3.19857 11.7884 2.76904 12.3183 2.76904C12.8483 2.76904 13.2779 3.19857 13.2779 3.72858Z" fill="white"/>
</g>
<defs>
<clipPath id="clip0">
<rect width="16" height="16" fill="white" transform="translate(0.0159302)"/>
</clipPath>
</defs>
</svg>
