<svg width="21" height="18" viewBox="0 0 21 18" fill="none" xmlns="http://www.w3.org/2000/svg">
<path d="M20.0159 2.79875C19.2722 3.125 18.4797 3.34125 17.6534 3.44625C18.5034 2.93875 19.1522 2.14125 19.4572 1.18C18.6647 1.6525 17.7897 1.98625 16.8572 2.1725C16.1047 1.37125 15.0322 0.875 13.8622 0.875C11.5922 0.875 9.76468 2.7175 9.76468 4.97625C9.76468 5.30125 9.79218 5.61375 9.85968 5.91125C6.45093 5.745 3.43468 4.11125 1.40843 1.6225C1.05468 2.23625 0.84718 2.93875 0.84718 3.695C0.84718 5.115 1.57843 6.37375 2.66843 7.1025C2.00968 7.09 1.36343 6.89875 0.81593 6.5975C0.81593 6.61 0.81593 6.62625 0.81593 6.6425C0.81593 8.635 2.23718 10.29 4.10093 10.6712C3.76718 10.7625 3.40343 10.8062 3.02593 10.8062C2.76343 10.8062 2.49843 10.7913 2.24968 10.7362C2.78093 12.36 4.28843 13.5538 6.08093 13.5925C4.68593 14.6838 2.91468 15.3412 0.99718 15.3412C0.66093 15.3412 0.33843 15.3263 0.0159302 15.285C1.83218 16.4563 3.98468 17.125 6.30593 17.125C13.8509 17.125 17.9759 10.875 17.9759 5.4575C17.9759 5.27625 17.9697 5.10125 17.9609 4.9275C18.7747 4.35 19.4584 3.62875 20.0159 2.79875Z" fill="white"/>
</svg>
